<?xml version="1.0" standalone="no"?>
<!DOCTYPE svg PUBLIC "-//W3C//DTD SVG 20010904//EN"
 "http://www.w3.org/TR/2001/REC-SVG-20010904/DTD/svg10.dtd">
<svg version="1.0" xmlns="http://www.w3.org/2000/svg"
 width="532.000000pt" height="531.000000pt" viewBox="0 0 532.000000 531.000000"
 preserveAspectRatio="xMidYMid meet">

<g transform="translate(0.000000,531.000000) scale(0.100000,-0.100000)"
fill="#000000" stroke="none">
<path d="M2022 4411 c-45 -29 -52 -54 -52 -192 0 -178 22 -205 161 -197 63 3
74 7 95 31 23 27 24 35 24 167 l0 140 -29 32 c-26 29 -35 33 -97 36 -56 2 -75
-1 -102 -17z"/>
<path d="M3164 4421 c-12 -5 -31 -22 -43 -37 -19 -24 -21 -39 -21 -165 0 -131
1 -139 24 -166 23 -26 31 -28 110 -32 84 -3 86 -2 116 27 l30 30 0 141 0 141
-29 32 c-26 30 -34 32 -97 35 -38 2 -79 -1 -90 -6z"/>
<path d="M1685 4224 c-43 -22 -74 -53 -96 -96 -18 -35 -19 -64 -19 -478 0
-242 2 -440 5 -440 2 0 38 21 80 46 l75 45 0 260 0 259 945 0 945 0 0 -259 0
-259 78 -45 77 -45 3 427 c3 453 1 477 -45 531 -44 53 -90 70 -193 70 l-90 0
0 -77 c0 -93 -22 -149 -71 -184 -31 -22 -44 -24 -140 -24 -100 0 -107 1 -142
28 -56 43 -71 79 -70 175 l1 82 -354 0 -353 0 5 -62 c6 -85 -18 -151 -69 -192
-37 -29 -44 -31 -135 -34 -86 -2 -102 0 -136 20 -60 35 -86 93 -86 190 l0 78
-92 0 c-65 0 -102 -5 -123 -16z"/>
<path d="M3130 3633 c-8 -3 -142 -132 -297 -287 l-283 -281 -165 165 -165 165
-46 0 c-62 0 -94 -35 -94 -102 l0 -47 198 -198 c217 -219 237 -232 312 -209
47 14 58 24 419 392 248 253 251 257 251 298 0 53 -12 77 -50 96 -29 15 -53
18 -80 8z"/>
<path d="M1835 3220 c-22 -11 -49 -33 -60 -48 -19 -26 -20 -45 -23 -492 -2
-428 -1 -468 15 -500 56 -110 223 -107 274 4 16 35 19 67 19 204 l0 162 615 0
615 0 0 -168 c0 -144 3 -172 19 -202 57 -108 219 -108 274 0 16 32 17 72 15
497 -3 448 -4 462 -24 489 -38 51 -71 69 -129 69 -58 0 -91 -18 -129 -69 -19
-25 -21 -44 -24 -202 l-3 -174 -614 0 -613 0 -4 174 c-3 158 -5 177 -24 202
-52 70 -128 91 -199 54z"/>
<path d="M1494 3076 l-34 -34 0 -362 c0 -397 0 -398 60 -434 39 -22 81 -20
121 7 59 39 59 40 59 415 0 298 -2 349 -16 378 -20 42 -59 64 -115 64 -33 0
-47 -6 -75 -34z"/>
<path d="M3698 3087 c-14 -12 -31 -32 -37 -44 -7 -14 -11 -140 -11 -377 l0
-356 34 -38 c31 -34 39 -37 86 -37 47 0 55 3 86 37 l34 38 0 355 c0 391 -1
400 -60 430 -43 22 -100 19 -132 -8z"/>
<path d="M1312 2838 c-8 -8 -12 -54 -12 -143 0 -153 6 -168 63 -163 21 2 37 6
37 11 0 4 0 75 0 157 l0 150 -38 0 c-21 0 -43 -5 -50 -12z"/>
<path d="M3941 2690 l1 -160 42 0 c23 0 47 5 54 12 15 15 17 261 2 289 -8 14
-21 19 -56 19 l-45 0 2 -160z"/>
<path d="M4197 1832 c-22 -25 -21 -75 1 -95 40 -36 112 -4 112 48 0 55 -77 86
-113 47z"/>
<path d="M883 1732 c-18 -48 -66 -179 -108 -291 -41 -112 -75 -208 -75 -213 0
-5 28 -8 62 -6 l61 3 18 51 c33 98 26 94 144 94 l103 0 24 -72 25 -73 68 -3
c62 -3 67 -1 60 15 -3 10 -44 119 -90 243 -46 124 -93 251 -106 283 l-22 57
-66 0 -66 0 -32 -88z m133 -154 c15 -46 29 -89 32 -95 3 -10 -14 -13 -68 -13
-53 0 -71 3 -68 13 3 6 18 49 34 95 16 45 32 82 36 82 3 0 19 -37 34 -82z"/>
<path d="M3050 1719 l0 -100 -32 23 c-27 18 -46 23 -100 23 -58 0 -72 -4 -109
-30 -23 -16 -51 -48 -63 -70 -25 -48 -32 -144 -17 -203 13 -47 60 -106 102
-128 42 -21 145 -18 184 6 l33 20 5 -20 c4 -17 13 -20 61 -20 l56 0 0 300 0
300 -60 0 -60 0 0 -101z m-50 -164 c76 -39 80 -169 8 -219 -12 -9 -40 -16 -61
-16 -31 0 -46 7 -73 34 -30 30 -34 40 -34 88 0 62 18 94 64 114 41 17 61 17
96 -1z"/>
<path d="M3720 1520 l0 -300 65 0 65 0 0 120 0 120 125 0 125 0 0 55 0 55
-125 0 -125 0 0 65 0 65 135 0 135 0 0 60 0 60 -200 0 -200 0 0 -300z"/>
<path d="M4420 1715 l0 -55 -40 0 -40 0 0 -50 0 -50 40 0 40 0 0 -122 c0 -137
7 -160 59 -195 27 -18 48 -23 97 -23 l64 0 0 50 0 50 -38 0 c-21 0 -43 5 -50
12 -8 8 -12 49 -12 120 l0 108 50 0 50 0 0 50 0 50 -50 0 -50 0 0 55 0 55 -60
0 -60 0 0 -55z"/>
<path d="M1390 1654 c-82 -36 -124 -106 -124 -209 0 -143 84 -224 220 -213 39
3 61 11 79 28 l25 23 0 -40 c0 -63 -34 -93 -105 -93 -42 0 -60 5 -75 20 -15
15 -33 20 -76 20 -53 0 -55 -1 -49 -22 9 -32 36 -68 69 -92 24 -18 42 -21 130
-21 96 0 105 2 145 28 75 49 81 75 81 345 l0 232 -60 0 c-52 0 -60 -3 -60 -19
0 -17 -3 -17 -47 5 -53 27 -103 30 -153 8z m143 -95 c40 -21 57 -51 57 -105 0
-86 -61 -138 -135 -114 -42 14 -62 40 -70 95 -14 92 72 163 148 124z"/>
<path d="M1900 1654 c-98 -43 -149 -145 -129 -263 18 -112 92 -172 213 -173
35 0 80 5 100 12 37 12 100 76 109 111 5 17 0 19 -51 19 -44 0 -61 -5 -80 -22
-18 -18 -36 -23 -74 -23 -43 0 -53 4 -79 33 -53 59 -48 62 131 62 l160 0 0 38
c0 89 -41 160 -114 197 -58 29 -132 33 -186 9z m138 -94 c17 -11 32 -24 32
-29 0 -5 3 -16 6 -25 5 -14 -7 -16 -96 -16 l-102 0 19 32 c34 58 85 72 141 38z"/>
<path d="M2416 1645 c-34 -23 -36 -23 -36 -5 0 18 -7 20 -60 20 l-60 0 0 -220
0 -220 60 0 60 0 0 144 c0 130 2 146 21 170 16 21 29 26 63 26 73 0 80 -16 84
-191 l4 -149 54 0 54 0 0 174 c0 163 -1 175 -23 207 -46 70 -152 91 -221 44z"/>
<path d="M3337 1656 c-21 -8 -48 -22 -59 -33 -25 -21 -51 -80 -43 -93 4 -6 30
-10 59 -10 45 0 54 3 59 20 17 64 167 37 167 -30 0 -18 -7 -20 -87 -20 -140
-1 -203 -42 -203 -133 0 -95 51 -139 157 -139 51 0 73 5 94 21 35 26 39 26 39
1 0 -18 7 -20 55 -20 l55 0 0 173 c0 193 -8 220 -72 253 -44 23 -171 29 -221
10z m183 -267 c0 -11 -13 -34 -29 -50 -23 -23 -38 -29 -72 -29 -70 0 -104 51
-57 84 15 11 45 16 90 16 62 0 68 -2 68 -21z"/>
<path d="M4180 1440 l0 -220 60 0 60 0 0 220 0 220 -60 0 -60 0 0 -220z"/>
</g>
</svg>
